<?xml version="1.0" standalone="no"?>
<!DOCTYPE svg PUBLIC "-//W3C//DTD SVG 20010904//EN"
 "http://www.w3.org/TR/2001/REC-SVG-20010904/DTD/svg10.dtd">
<svg version="1.0" xmlns="http://www.w3.org/2000/svg"
 width="1606.000000pt" height="94.000000pt" viewBox="0 0 1606.000000 94.000000"
 preserveAspectRatio="xMidYMid meet">

<g transform="translate(0.000000,94.000000) scale(0.100000,-0.100000)"
fill="#000000" stroke="none">
<path d="M130 480 l0 -230 50 0 50 0 0 90 c0 100 6 110 57 93 19 -7 47 -38 87
-96 l60 -87 58 0 c58 0 59 0 47 23 -22 41 -72 112 -101 144 l-30 31 36 17 c20
10 43 30 51 46 20 37 19 102 -1 140 -25 48 -65 59 -224 59 l-140 0 0 -230z
m258 134 c26 -18 29 -56 6 -78 -11 -12 -36 -16 -90 -16 l-74 0 0 48 c0 27 3
52 7 55 13 14 128 7 151 -9z"/>
<path d="M1200 480 l0 -230 50 0 50 0 0 114 c0 106 2 117 23 139 20 21 74 37
62 17 -3 -4 2 -10 10 -14 12 -4 15 -29 15 -131 l0 -125 50 0 50 0 0 125 c0
143 -12 185 -59 209 -40 21 -79 20 -118 -4 l-33 -20 0 75 0 75 -50 0 -50 0 0
-230z"/>
<path d="M1810 635 l0 -75 -32 20 c-62 37 -140 16 -180 -49 -30 -47 -32 -168
-5 -219 37 -67 121 -91 185 -52 26 16 32 17 32 5 0 -11 12 -15 45 -15 l45 0 0
230 0 230 -45 0 -45 0 0 -75z m-46 -117 c-3 -4 0 -8 6 -8 20 0 42 -71 35 -114
-8 -53 -30 -76 -71 -76 -45 0 -64 30 -64 98 0 42 5 58 24 77 13 13 22 26 20
28 -2 2 9 4 26 4 16 0 27 -4 24 -9z"/>
<path d="M2760 480 l0 -230 125 0 c141 0 176 9 217 58 40 48 51 93 46 193 -4
79 -8 94 -34 130 -48 68 -78 79 -226 79 l-128 0 0 -230z m220 141 c43 -12 70
-65 70 -136 0 -119 -31 -155 -135 -155 l-55 0 0 143 c0 79 3 147 7 150 8 9 80
7 113 -2z"/>
<path d="M4290 480 l0 -230 50 0 50 0 0 230 0 230 -50 0 -50 0 0 -230z"/>
<path d="M7320 480 l0 -230 175 0 175 0 0 40 0 40 -125 0 -125 0 0 60 0 60
115 0 115 0 0 40 0 40 -115 0 -115 0 0 50 0 50 120 0 120 0 0 40 0 40 -170 0
-170 0 0 -230z"/>
<path d="M9100 665 l0 -45 45 0 45 0 0 45 0 45 -45 0 -45 0 0 -45z"/>
<path d="M11160 480 l0 -230 45 0 45 0 0 230 0 230 -45 0 -45 0 0 -230z"/>
<path d="M11480 670 l0 -40 68 -1 c37 -1 71 -1 75 0 4 1 7 -84 5 -189 l-3
-190 48 0 47 0 0 190 0 190 70 0 70 0 0 40 0 40 -190 0 -190 0 0 -40z"/>
<path d="M13030 664 l0 -45 48 3 47 3 3 43 3 42 -50 0 -51 0 0 -46z"/>
<path d="M13955 480 l0 -230 48 0 47 0 0 230 0 230 -47 0 -48 0 0 -230z"/>
<path d="M14728 694 c-46 -24 -71 -87 -76 -188 -9 -182 40 -266 156 -266 49 0
94 29 118 76 16 32 19 61 19 159 0 136 -15 183 -69 216 -37 23 -110 24 -148 3z
m106 -86 c23 -32 23 -234 0 -266 -20 -29 -54 -25 -72 8 -17 34 -13 240 7 263
19 24 47 21 65 -5z"/>
<path d="M15254 695 c-52 -27 -88 -115 -46 -115 9 0 27 -3 39 -6 16 -5 24 1
35 23 24 51 94 37 86 -19 -2 -13 -16 -29 -33 -38 -16 -8 -31 -15 -31 -15 -1 0
-4 -17 -8 -38 -7 -37 -6 -37 19 -31 42 10 75 -19 75 -66 0 -31 -5 -43 -25 -56
-34 -22 -69 -12 -85 27 -12 27 -17 30 -43 25 -16 -3 -36 -6 -43 -6 -37 0 6
-88 58 -120 40 -24 107 -26 154 -4 53 25 79 69 79 132 0 48 -3 57 -33 83 l-33
30 26 31 c36 42 30 97 -14 141 -25 26 -39 31 -88 34 -39 3 -68 -1 -89 -12z"/>
<path d="M1035 677 c-32 -18 -41 -29 -43 -55 -2 -24 -8 -32 -23 -32 -16 0 -19
-7 -19 -40 0 -33 3 -40 20 -40 19 0 20 -7 20 -110 0 -104 1 -112 25 -135 18
-19 35 -25 67 -25 58 0 70 10 66 51 -3 31 -6 34 -30 31 l-28 -3 0 95 0 95 28
3 c24 3 27 7 27 38 0 31 -3 35 -27 38 -27 3 -28 6 -28 58 0 30 -3 54 -7 54 -5
0 -26 -10 -48 -23z"/>
<path d="M6613 674 c-34 -21 -43 -32 -43 -54 0 -19 -6 -29 -20 -33 -15 -4 -20
-14 -20 -41 0 -29 4 -36 20 -36 18 0 20 -7 21 -72 0 -103 13 -169 35 -185 19
-14 101 -18 120 -5 7 4 9 20 5 42 -5 29 -10 35 -31 35 -25 0 -25 1 -28 93 l-3
92 31 0 c28 0 30 2 30 40 0 38 -2 40 -30 40 -30 0 -30 1 -30 55 0 30 -3 55 -7
55 -5 -1 -27 -12 -50 -26z"/>
<path d="M10633 674 c-35 -20 -43 -31 -43 -55 0 -22 -5 -29 -20 -29 -17 0 -20
-7 -20 -40 0 -33 3 -40 19 -40 18 0 20 -10 23 -116 3 -108 5 -117 27 -135 24
-20 95 -26 119 -10 8 5 12 22 10 42 -3 31 -6 34 -30 31 l-28 -3 0 95 0 96 30
0 c28 0 30 2 30 40 0 38 -2 40 -30 40 -30 0 -30 1 -30 55 0 30 -3 55 -7 55 -5
0 -27 -12 -50 -26z"/>
<path d="M674 581 c-127 -58 -131 -262 -6 -322 54 -26 139 -23 179 7 56 42 68
70 68 152 0 65 -4 82 -24 111 -47 65 -139 87 -217 52z m116 -61 c8 -5 15 -13
16 -17 0 -4 6 -21 12 -36 16 -37 15 -60 -2 -102 -25 -59 -102 -61 -132 -3 -20
38 -14 100 13 130 13 15 14 19 3 14 -8 -4 -6 0 4 8 22 18 63 21 86 6z"/>
<path d="M721 516 c2 -2 22 -6 44 -9 27 -4 35 -3 25 3 -14 9 -79 15 -69 6z"/>
<path d="M2098 581 c-22 -18 -27 -18 -32 -6 -3 10 -19 15 -46 15 l-40 0 0
-170 0 -170 44 0 44 0 4 111 c3 103 5 113 27 130 14 11 31 17 40 14 30 -12 33
-10 47 29 16 44 12 53 -31 62 -22 4 -38 0 -57 -15z"/>
<path d="M2285 582 c-53 -25 -91 -101 -45 -89 11 3 18 1 14 -4 -12 -20 46 -7
63 14 12 15 29 22 53 22 30 0 35 -3 38 -26 3 -26 0 -27 -72 -43 -91 -21 -126
-53 -126 -116 0 -82 89 -125 175 -84 28 13 40 15 43 6 2 -7 22 -12 45 -12 l42
0 -3 122 c-4 149 -10 176 -45 202 -38 28 -130 32 -182 8z m125 -212 c0 -36
-38 -65 -74 -56 -50 12 -43 60 12 74 58 16 62 14 62 -18z"/>
<path d="M3295 586 c-118 -52 -128 -269 -15 -328 43 -22 120 -23 161 -3 26 14
69 67 69 86 0 4 -18 9 -41 13 -36 6 -44 3 -65 -19 -12 -14 -29 -25 -37 -25
-23 0 -67 40 -67 61 0 18 8 19 111 19 l111 0 -7 48 c-10 73 -35 114 -85 140
-50 25 -91 27 -135 8z m103 -84 c38 -40 29 -52 -38 -52 -67 0 -75 11 -38 53
26 29 46 29 76 -1z"/>
<path d="M4000 582 c-70 -38 -105 -132 -81 -220 23 -86 69 -122 156 -122 53 0
95 19 124 56 30 39 26 51 -19 59 -36 6 -44 4 -65 -19 -30 -32 -49 -33 -80 -1
-48 48 -37 55 86 55 l112 0 -6 49 c-3 28 -13 63 -21 80 -36 70 -137 101 -206
63z m107 -76 c13 -11 23 -28 23 -38 0 -15 -9 -18 -60 -18 -67 0 -75 11 -38 53
25 28 44 29 75 3z"/>
<path d="M4562 587 c-69 -22 -120 -117 -108 -202 9 -60 40 -103 89 -125 125
-57 256 21 257 153 0 134 -110 215 -238 174z m102 -65 c2 -4 -12 -7 -32 -5
l-37 2 39 -8 c51 -11 66 -33 66 -95 0 -88 -70 -127 -126 -71 -22 22 -25 32
-21 73 7 69 12 83 32 98 20 15 71 19 79 6z"/>
<path d="M4987 580 c-31 -17 -37 -17 -37 -5 0 11 -12 15 -45 15 l-45 0 0 -235
0 -235 50 0 50 0 0 75 0 76 30 -16 c68 -35 147 -5 180 68 43 93 14 219 -60
258 -45 24 -76 24 -123 -1z m58 -61 c-4 -6 0 -9 11 -7 10 2 19 -2 19 -9 0 -6
3 -15 8 -19 14 -14 8 -119 -9 -142 -22 -32 -78 -30 -100 3 -22 33 -22 120 0
144 9 10 13 21 9 25 -4 4 1 4 11 0 14 -5 17 -4 12 4 -5 8 2 12 19 12 16 0 24
-4 20 -11z"/>
<path d="M5372 580 c-39 -24 -42 -24 -42 -5 0 11 -11 15 -40 15 l-40 0 0 -170
0 -170 45 0 45 0 0 110 c0 104 2 112 24 135 13 13 22 26 20 28 -3 3 7 5 20 5
14 0 23 -4 21 -8 -3 -5 1 -10 7 -12 9 -3 14 -41 16 -131 l4 -127 43 0 43 0 4
116 c3 105 5 117 25 134 12 9 20 20 17 23 -3 2 7 5 20 5 14 0 23 -4 21 -8 -3
-5 1 -10 7 -12 9 -3 14 -41 16 -131 l4 -127 44 0 44 0 0 135 c0 149 -9 182
-55 203 -41 19 -79 14 -121 -14 -24 -16 -40 -22 -42 -15 -6 17 -57 41 -89 41
-15 0 -43 -9 -61 -20z"/>
<path d="M5895 586 c-42 -18 -83 -69 -91 -112 -11 -60 0 -138 26 -174 59 -83
208 -80 261 7 12 19 20 36 18 38 -11 10 -99 16 -99 7 0 -17 -30 -42 -51 -42
-25 0 -59 35 -59 60 0 19 7 20 106 20 l106 0 -4 55 c-5 58 -24 94 -70 128 -33
25 -104 31 -143 13z m103 -90 c12 -17 22 -34 22 -38 0 -4 -27 -8 -60 -8 -53 0
-60 2 -60 19 0 11 9 26 20 34 11 8 17 17 13 21 -4 3 4 5 18 4 13 -2 34 -16 47
-32z"/>
<path d="M6307 580 c-31 -17 -37 -17 -37 -5 0 11 -12 15 -45 15 l-45 0 0 -170
0 -170 44 0 44 0 4 116 c3 105 5 117 25 134 12 9 19 21 15 25 -4 4 4 5 18 3
51 -7 60 -30 60 -160 l0 -118 51 0 51 0 -4 138 c-4 153 -12 176 -63 198 -46
19 -73 18 -118 -6z"/>
<path d="M6835 586 c-46 -21 -70 -52 -70 -96 0 -64 44 -94 178 -124 47 -11 27
-56 -25 -56 -18 0 -39 10 -55 26 -23 23 -31 25 -69 19 -24 -3 -44 -9 -44 -12
0 -3 8 -18 18 -35 25 -43 80 -68 150 -68 97 0 162 60 147 136 -8 43 -34 61
-133 88 -89 25 -105 49 -35 54 32 2 46 -2 59 -16 13 -15 23 -18 55 -12 22 4
42 10 44 12 12 12 -44 74 -75 85 -46 16 -108 15 -145 -1z"/>
<path d="M8227 580 c-31 -17 -37 -17 -37 -5 0 11 -12 15 -45 15 l-45 0 0 -235
0 -235 45 0 45 0 0 75 c0 41 3 75 8 75 4 -1 18 -7 32 -15 33 -19 84 -19 120 0
85 44 106 216 36 293 -48 54 -99 64 -159 32z m53 -61 c-12 -8 -10 -9 9 -7 27
3 31 -5 38 -90 6 -69 -13 -102 -62 -102 -39 0 -61 24 -71 77 -7 35 12 103 27
103 6 0 7 4 4 10 -4 6 1 7 11 3 12 -4 15 -3 10 5 -5 8 2 12 21 12 22 0 25 -2
13 -11z"/>
<path d="M8554 580 c-58 -29 -86 -84 -86 -166 1 -75 20 -117 73 -152 29 -20
43 -23 98 -20 58 4 66 7 97 41 45 48 43 64 -5 72 -33 5 -42 3 -64 -19 -15 -14
-33 -26 -40 -26 -21 0 -55 32 -59 55 -3 19 3 20 105 23 l107 3 0 37 c0 46 -36
119 -71 145 -40 29 -106 32 -155 7z m91 -58 c-2 -3 4 -11 14 -18 10 -7 21 -23
24 -34 5 -19 1 -20 -58 -20 -59 0 -63 1 -58 20 3 11 14 27 24 34 10 7 16 15
14 18 -3 3 6 6 20 6 14 0 23 -3 20 -6z"/>
<path d="M8956 579 c-21 -17 -26 -18 -26 -5 0 12 -11 16 -45 16 l-45 0 0 -170
0 -170 49 0 49 0 4 116 c3 129 13 148 68 137 25 -5 29 -1 40 33 11 33 11 39
-6 51 -26 19 -57 16 -88 -8z"/>
<path d="M9392 580 c-39 -24 -42 -24 -42 -5 0 11 -11 15 -40 15 l-40 0 0 -170
0 -170 45 0 45 0 0 110 c0 104 2 112 24 135 13 13 22 26 20 28 -3 3 7 5 20 5
14 0 23 -4 21 -8 -3 -5 1 -10 7 -12 9 -3 14 -41 16 -131 l4 -127 43 0 43 0 4
116 c3 105 5 117 25 134 12 9 20 20 17 23 -3 2 7 5 20 5 14 0 23 -4 21 -8 -3
-5 1 -10 7 -12 9 -3 14 -41 16 -131 l4 -127 44 0 44 0 0 135 c0 149 -9 182
-55 203 -41 19 -79 14 -121 -14 -24 -16 -40 -22 -42 -15 -6 17 -57 41 -89 41
-15 0 -43 -9 -61 -20z"/>
<path d="M9915 586 c-42 -18 -83 -69 -91 -112 -11 -60 0 -138 26 -174 59 -83
208 -80 261 7 12 19 20 36 18 38 -11 10 -99 16 -99 7 0 -17 -30 -42 -51 -42
-25 0 -59 35 -59 60 0 19 7 20 106 20 l106 0 -4 55 c-5 58 -24 94 -70 128 -33
25 -104 31 -143 13z m103 -90 c12 -17 22 -34 22 -38 0 -4 -27 -8 -60 -8 -53 0
-60 2 -60 19 0 11 9 26 20 34 11 8 17 17 13 21 -4 3 4 5 18 4 13 -2 34 -16 47
-32z"/>
<path d="M10327 580 c-31 -17 -37 -17 -37 -5 0 11 -12 15 -45 15 l-45 0 0
-170 0 -170 44 0 44 0 4 116 c3 105 5 117 25 134 12 9 19 21 15 25 -4 4 4 5
18 3 51 -7 60 -30 60 -160 l0 -118 51 0 51 0 -4 138 c-4 153 -12 176 -63 198
-46 19 -73 18 -118 -6z"/>
<path d="M10864 586 c-55 -24 -102 -106 -54 -93 11 3 20 1 20 -4 0 -16 40 -9
59 10 11 11 18 21 15 23 -2 2 12 4 31 4 19 0 32 -2 30 -4 -2 -2 3 -11 11 -19
21 -21 10 -30 -54 -43 -98 -21 -142 -55 -142 -112 0 -89 95 -137 183 -92 21
12 32 13 35 5 2 -6 25 -11 53 -11 48 0 48 0 39 26 -6 14 -10 73 -10 132 0 65
-5 117 -13 132 -26 53 -132 77 -203 46z m122 -213 c-12 -52 -69 -80 -96 -48
-19 23 -7 49 30 62 59 20 73 17 66 -14z"/>
<path d="M11920 582 c-70 -38 -105 -132 -81 -220 23 -86 69 -122 156 -122 53
0 95 19 124 56 30 39 26 51 -19 59 -36 6 -44 4 -65 -19 -30 -32 -49 -33 -80
-1 -48 48 -37 55 86 55 l112 0 -6 49 c-3 28 -13 63 -21 80 -36 70 -137 101
-206 63z m107 -76 c13 -11 23 -28 23 -38 0 -15 -9 -18 -60 -18 -67 0 -75 11
-38 53 25 28 44 29 75 3z"/>
<path d="M12326 579 c-21 -17 -26 -18 -26 -5 0 12 -11 16 -45 16 l-45 0 0
-170 0 -170 45 0 45 0 1 68 c1 137 25 203 69 186 29 -11 32 -9 46 31 13 36 13
41 -3 52 -25 19 -57 16 -87 -8z"/>
<path d="M12582 580 c-39 -24 -42 -24 -42 -5 0 11 -11 15 -40 15 l-40 0 0
-170 0 -170 45 0 45 0 0 110 c0 104 2 112 24 135 13 13 22 26 20 28 -3 3 7 5
20 5 14 0 23 -4 21 -8 -3 -5 1 -10 7 -12 9 -3 14 -41 16 -131 l4 -127 43 0 43
0 4 116 c3 105 5 117 25 134 12 9 20 20 17 23 -3 2 7 5 20 5 14 0 23 -4 21 -8
-3 -5 1 -10 7 -12 9 -3 14 -41 16 -131 l4 -127 44 0 44 0 0 135 c0 149 -9 182
-55 203 -41 19 -79 14 -121 -14 -24 -16 -40 -22 -42 -15 -6 17 -57 41 -89 41
-15 0 -43 -9 -61 -20z"/>
<path d="M13337 580 c-31 -17 -37 -17 -37 -5 0 11 -12 15 -45 15 l-45 0 0
-170 0 -170 44 0 44 0 4 116 c3 105 5 117 25 134 12 9 19 21 15 25 -4 4 4 5
18 3 51 -7 60 -30 60 -160 l0 -118 51 0 51 0 -4 138 c-4 153 -12 176 -63 198
-46 19 -73 18 -118 -6z"/>
<path d="M13655 582 c-53 -25 -91 -101 -45 -89 11 3 18 1 14 -4 -12 -20 46 -7
63 14 12 15 29 22 53 22 30 0 35 -3 38 -26 3 -26 0 -27 -72 -43 -91 -21 -126
-53 -126 -116 0 -82 89 -125 175 -84 28 13 40 15 43 6 2 -7 22 -12 45 -12 l42
0 -3 122 c-4 149 -10 176 -45 202 -38 28 -130 32 -182 8z m125 -212 c0 -36
-38 -65 -74 -56 -50 12 -43 60 12 74 58 16 62 14 62 -18z"/>
<path d="M3543 578 c3 -7 33 -84 68 -171 l63 -158 44 3 45 3 57 146 c83 210
80 191 24 187 l-48 -3 -33 -85 c-18 -47 -36 -93 -41 -103 -5 -14 -17 9 -46 87
l-38 106 -50 0 c-36 0 -49 -3 -45 -12z"/>
<path d="M7710 581 c0 -4 8 -19 18 -32 10 -13 35 -47 55 -75 l36 -51 -60 -86
-60 -87 55 0 c54 0 56 1 86 46 35 50 43 49 76 -11 18 -34 20 -35 77 -35 67 0
68 -6 -11 105 l-50 70 54 76 c30 43 54 80 54 83 0 3 -24 6 -54 6 -54 0 -54 0
-80 -45 -15 -25 -28 -45 -30 -45 -2 0 -16 20 -30 45 -27 45 -27 45 -81 45 -30
0 -55 -4 -55 -9z"/>
<path d="M9100 420 l0 -170 45 0 45 0 0 170 0 170 -45 0 -45 0 0 -170z"/>
<path d="M13030 421 l0 -171 50 0 50 0 -2 168 -3 167 -47 3 -48 3 0 -170z"/>
<path d="M14274 573 c4 -10 33 -85 65 -168 l59 -150 45 -3 45 -3 62 158 c34
87 65 164 67 171 4 8 -9 12 -45 12 l-49 0 -38 -105 c-20 -58 -38 -105 -40
-105 -2 0 -20 47 -40 105 l-38 105 -49 0 c-43 0 -49 -2 -44 -17z"/>
<path d="M15020 295 l0 -45 50 0 50 0 0 45 0 45 -50 0 -50 0 0 -45z"/>
</g>
</svg>
